HIERARCHY
ROOT SpineBase
{
  OFFSET 0.000000 0.000000 0.000000
  CHANNELS 6 Xposition Yposition Zposition Zrotation Xrotation Yrotation
  JOINT SpineMid
  {
    OFFSET 0.000000 30.624868 0.000000
    CHANNELS 3 Zrotation Xrotation Yrotation
    JOINT SpineShoulder
    {
      OFFSET 0.105867 22.728445 -0.854108
      CHANNELS 3 Zrotation Xrotation Yrotation
      JOINT Neck
      {
        OFFSET 0.056834 7.538007 -0.633899
        CHANNELS 3 Zrotation Xrotation Yrotation
        JOINT Head
        {
          OFFSET 3.805640 13.544871 2.275123
          CHANNELS 3 Zrotation Xrotation Yrotation
          End Site
          {
            OFFSET 0 0 0
          }
        }
      }
      JOINT ShoulderLeft
      {
        OFFSET -10.842687 -2.391602 -12.355395
        CHANNELS 3 Zrotation Xrotation Yrotation
        JOINT ElbowLeft
        {
          OFFSET -3.639568 -25.465346 -5.894912
          CHANNELS 3 Zrotation Xrotation Yrotation
          JOINT WristLeft
          {
            OFFSET 6.445400 -23.444979 -5.050685
            CHANNELS 3 Zrotation Xrotation Yrotation
            JOINT HandLeft
            {
              OFFSET 2.206587 -3.260185 1.174482
              CHANNELS 3 Zrotation Xrotation Yrotation
              JOINT HandTipLeft
              {
                OFFSET 1.018400 -5.777617 1.898081
                CHANNELS 3 Zrotation Xrotation Yrotation
                End Site
                {
                  OFFSET 0 0 0
                }
              }
              JOINT ThumbLeft
              {
                OFFSET -4.029810 -0.048099 -2.785454
                CHANNELS 3 Zrotation Xrotation Yrotation
                End Site
                {
                  OFFSET 0 0 0
                }
              }
            }
          }
        }
      }
      JOINT ShoulderRight
      {
        OFFSET 13.052064 -5.425372 9.995372
        CHANNELS 3 Zrotation Xrotation Yrotation
        JOINT ElbowRight
        {
          OFFSET 1.490745 -29.863279 1.480752
          CHANNELS 3 Zrotation Xrotation Yrotation
          JOINT WristRight
          {
            OFFSET 5.082745 -25.305753 -9.306778
            CHANNELS 3 Zrotation Xrotation Yrotation
            JOINT HandRight
            {
              OFFSET -0.345925 -7.950309 -3.265870
              CHANNELS 3 Zrotation Xrotation Yrotation
              JOINT HandTipRight
              {
                OFFSET -0.454592 -7.984878 -1.846215
                CHANNELS 3 Zrotation Xrotation Yrotation
                End Site
                {
                  OFFSET 0 0 0
                }
              }
              JOINT ThumbRight
              {
                OFFSET -4.892568 -0.623597 -1.964010
                CHANNELS 3 Zrotation Xrotation Yrotation
                End Site
                {
                  OFFSET 0 0 0
                }
              }
            }
          }
        }
      }
    }
  }
  JOINT HipLeft
  {
    OFFSET -4.897976 1.828768 -7.617427
    CHANNELS 3 Zrotation Xrotation Yrotation
    JOINT KneeLeft
    {
      OFFSET -7.677625 -27.383989 -3.943878
      CHANNELS 3 Zrotation Xrotation Yrotation
      JOINT AnkleLeft
      {
        OFFSET -3.870651 -33.016491 1.704551
        CHANNELS 3 Zrotation Xrotation Yrotation
        JOINT FootLeft
        {
          OFFSET 7.826030 -3.707131 -11.054222
          CHANNELS 3 Zrotation Xrotation Yrotation
          End Site
          {
            OFFSET 0 0 0
          }
        }
      }
    }
  }
  JOINT HipRight
  {
    OFFSET 5.732191 0.118205 0.560400
    CHANNELS 3 Zrotation Xrotation Yrotation
    JOINT KneeRight
    {
      OFFSET -5.243786 -30.549144 2.094335
      CHANNELS 3 Zrotation Xrotation Yrotation
      JOINT AnkleRight
      {
        OFFSET -5.494001 -29.221673 1.506961
        CHANNELS 3 Zrotation Xrotation Yrotation
        JOINT FootRight
        {
          OFFSET 6.208713 -5.245776 -8.613566
          CHANNELS 3 Zrotation Xrotation Yrotation
          End Site
          {
            OFFSET 0 0 0
          }
        }
      }
    }
  }
}
MOTION
Frames: 5
Frame Time: 0.033333
-36.458513 68.978457 340.030203 -0.000000 0.000000 -37.571219 0.000000 0.000000 37.571219 -0.000000 0.000000 0.000000 -0.000000 0.000000 0.000000 0.000000 0.000000 0.000000 -0.000000 0.000000 0.000000 -0.000000 0.000000 0.000000 -0.000000 0.000000 0.000000 -0.000000 0.000000 0.000000 0.000000 0.000000 0.000000 0.000000 0.000000 0.000000 -0.000000 0.000000 0.000000 -0.000000 0.000000 0.000000 -0.000000 0.000000 0.000000 -0.000000 0.000000 0.000000 0.000000 0.000000 0.000000 0.000000 0.000000 0.000000 0.000000 0.000000 37.571219 -0.000000 0.000000 0.000000 -0.000000 0.000000 0.000000 0.000000 0.000000 0.000000 0.000000 0.000000 37.571219 -0.000000 0.000000 0.000000 -0.000000 0.000000 0.000000 0.000000 0.000000 0.000000
-36.132232 68.767872 339.932831 0.368634 -0.017448 -36.807213 -0.305604 -0.206887 36.806717 -0.000000 0.000000 0.000000 -0.000000 0.000000 0.000000 0.000000 0.000000 0.000000 -0.957971 0.003625 0.221010 -2.132419 0.464375 0.589407 -1.716920 -1.608249 -3.456182 1.786524 7.981730 3.096849 0.000000 0.000000 0.000000 0.000000 0.000000 0.000000 -0.000000 0.000000 0.000000 -0.000000 0.000000 0.000000 0.674658 3.704642 -0.454289 3.164439 -7.478988 0.125388 0.000000 0.000000 0.000000 0.000000 0.000000 0.000000 -0.305604 -0.206887 36.806717 -0.000000 0.000000 0.000000 -0.000000 0.000000 0.000000 0.000000 0.000000 0.000000 -0.875592 -0.867940 36.775213 0.852303 0.188220 0.024758 -1.783354 -2.081858 0.453706 0.000000 0.000000 0.000000
-35.846099 68.586985 339.832953 0.670793 -0.018836 -36.187197 -0.552520 -0.380845 36.185471 -0.000000 0.000000 0.000000 -0.000000 0.000000 0.000000 0.000000 0.000000 0.000000 -1.831298 -0.039603 0.428041 -4.023534 0.829990 1.106699 -3.467012 -2.962365 -6.901557 3.091794 14.369546 6.322805 0.000000 0.000000 0.000000 0.000000 0.000000 0.000000 -0.000000 0.000000 0.000000 0.872658 0.920353 -0.142457 0.781807 5.343215 -0.871329 5.627896 -12.798282 0.799643 0.000000 0.000000 0.000000 0.000000 0.000000 0.000000 -1.199248 -1.369578 36.450957 1.107640 0.410970 -0.279337 -0.000000 0.000000 0.000000 0.000000 0.000000 0.000000 -1.608479 -1.615056 36.122847 2.327666 0.016818 0.142435 -4.425656 -4.056775 0.648567 0.000000 0.000000 0.000000
-35.600113 68.435794 339.730570 0.907473 -0.004295 -35.710424 -0.739375 -0.526180 35.707063 -0.000000 0.000000 0.000000 -0.000000 0.000000 0.000000 0.000000 0.000000 0.000000 -2.615837 -0.129189 0.619288 -5.617361 1.095110 1.528101 -5.146746 -4.137433 -10.241677 3.791946 19.615212 9.595186 0.000000 0.000000 0.000000 0.000000 0.000000 0.000000 -0.000000 0.000000 0.000000 1.033359 1.379043 -0.114774 1.943409 6.465557 -1.567986 7.439249 -16.239822 1.701229 0.000000 0.000000 0.000000 0.000000 0.000000 0.000000 -1.683699 -1.894945 36.068588 1.569148 0.550161 -0.389011 -0.059672 0.285104 0.775051 0.000000 0.000000 0.000000 -2.188098 -2.250294 35.617863 3.147633 0.063980 0.181104 -6.667171 -6.525913 0.705862 0.000000 0.000000 0.000000
-35.394275 68.314301 339.625683 1.079471 0.026093 -35.376352 -0.254188 0.039160 35.407141 -0.895003 -0.204673 -0.034276 -0.000000 0.000000 0.000000 0.000000 0.000000 0.000000 -3.308199 -0.264359 0.793305 -6.872510 1.261832 1.834448 -6.649456 -5.257422 -13.409252 3.738478 24.047929 12.879652 0.000000 0.000000 0.000000 0.000000 0.000000 0.000000 -0.334630 0.764759 0.023829 1.334443 1.060924 -0.022741 3.670100 6.702656 -2.438062 8.563861 -17.997272 2.614603 0.000000 0.000000 0.000000 0.000000 0.000000 0.000000 -2.084799 -2.323852 35.806618 1.970613 0.646470 -0.478123 -0.073926 0.350207 0.952575 0.000000 0.000000 0.000000 -2.605878 -2.780814 35.263494 3.734683 0.135787 0.199462 -8.959701 -9.303866 0.533653 0.000000 0.000000 0.000000
